<?xml version="1.0" encoding="UTF-8"?>
<svg width="56.695" height="46.055" clip-rule="evenodd" stroke-linejoin="round" stroke-miterlimit="1.4142" version="1.1" viewBox="0 0 56.695 46.055" xml:space="preserve" xmlns="http://www.w3.org/2000/svg"><path d="m29.555 25.895c0.106-1.891 1.032-3.557 2.429-4.738 1.37-1.16 3.214-1.869 5.226-1.869 2.01 0 3.854 0.709 5.225 1.869 1.396 1.181 2.322 2.847 2.429 4.736 0.106 1.943-0.675 3.748-2.045 5.086-1.397 1.361-3.384 2.215-5.609 2.215s-4.216-0.854-5.612-2.215c-1.371-1.338-2.15-3.143-2.043-5.084" fill="#fff"/><path d="m17.365 29.716c0.013 0.74 0.249 2.178 0.603 3.301 0.744 2.377 2.006 4.576 3.762 6.514 1.802 1.992 4.021 3.592 6.584 4.728 2.694 1.193 5.613 1.801 8.645 1.796a21.2 21.2 0 0 0 8.64-1.826c2.563-1.147 4.78-2.754 6.579-4.747 1.755-1.946 3.015-4.149 3.761-6.526 0.375-1.201 0.612-2.42 0.707-3.643a16.6 16.6 0 0 0-0.117-3.618 16.8 16.8 0 0 0-2.399-6.565 18.3 18.3 0 0 0-4.376-4.825l4e-3 -3e-3 -17.711-13.599q-0.022-0.019-0.046-0.036c-1.162-0.892-3.116-0.889-4.394 5e-3 -1.292 0.904-1.44 2.399-0.29 3.342l-5e-3 5e-3 7.387 6.007-22.515 0.024h-0.03c-1.861 2e-3 -3.65 1.223-4.004 2.766-0.364 1.572 0.9 2.876 2.835 2.883l-3e-3 7e-3 11.412-0.022-20.364 15.631-0.078 0.058c-1.921 1.471-2.542 3.917-1.332 5.465 1.228 1.574 3.839 1.577 5.78 9e-3l11.114-9.096s-0.162 1.228-0.149 1.965m28.559 4.112c-2.29 2.333-5.496 3.656-8.965 3.663-3.474 6e-3 -6.68-1.305-8.97-3.634a10.7 10.7 0 0 1-2.448-3.832 9.95 9.95 0 0 1-0.562-4.282 10.1 10.1 0 0 1 1.227-4.031 11.1 11.1 0 0 1 2.724-3.239c2.226-1.814 5.06-2.796 8.024-2.8 2.967-4e-3 5.799 0.969 8.027 2.777a11.1 11.1 0 0 1 2.721 3.229 10.1 10.1 0 0 1 1.232 4.029 10 10 0 0 1-0.564 4.279 10.7 10.7 0 0 1-2.446 3.841" fill="#fff"/></svg>
