<?xml version="1.0" encoding="UTF-8"?>
<svg width="1e3" height="1e3" aria-labelledby="css-logo-title css-logo-description" role="img" version="1.1" viewBox="0 0 1e3 1e3" xmlns="http://www.w3.org/2000/svg" xmlns:cc="http://creativecommons.org/ns#" xmlns:dc="http://purl.org/dc/elements/1.1/" xmlns:rdf="http://www.w3.org/1999/02/22-rdf-syntax-ns#">
 <title id="css-logo-title">CSS Logo</title>
 <desc id="css-logo-description">A purple square with rounded corners and the letters CSS inside in white</desc>
 <path id="bg" d="m0 0v840a160 160 0 0 0 160 160h680a160 160 0 0 0 160-160v-680a160 160 0 0 0-160-160h-840zm593.15 544.98c28.156-0.30875 56.317 8.7293 71.922 27.654 19.25 19.51 27.659 57.899 26.029 93.229h-67.02c0.57-14.52-0.79945-37.95-6.4395-46.49-3.95-7.23-11.43-10.85-22.42-10.85-19.59 0-29.381 11.711-29.381 35.121 0.21 24.86 9.9005 35.059 32.48 45.449 29.24 11.36 66.42 30.76 79.9 54.24 40.2 71.54 12.62 180.82-86.09 176.65l0.00976 0.01953c-71.17 0.98-103.01-49.659-101.04-118.29h69.59c-1.93 29.92 8.3502 57.17 32.99 55.27 10.99 0 18.731-3.4401 23.201-10.33 8.5-12.59 10.089-48.95-2.0606-63.02-8.49-13.55-39.03-25.51-55.16-33.57-23.03-11.02-39.61-24.1-49.75-39.26-22.87-33.64-20.75-107.48 11.34-137.4 15.59-18.46 43.742-28.115 71.898-28.424zm224.76 0c28.156-0.30875 56.317 8.7293 71.922 27.654 19.25 19.51 27.659 57.899 26.029 93.229h-67.02c0.57-14.52-0.79945-37.95-6.4394-46.49-3.95-7.23-11.43-10.85-22.42-10.85-19.59 0-29.381 11.711-29.381 35.121 0.21 24.86 9.9005 35.059 32.48 45.449 29.24 11.36 66.42 30.76 79.9 54.24 40.2 71.54 12.62 180.82-86.09 176.65l0.00977 0.01953c-71.17 0.98-103.01-49.659-101.04-118.29h69.59c-1.93 29.92 8.3502 57.17 32.99 55.27 10.99 0 18.731-3.4401 23.201-10.33 8.5-12.59 10.089-48.95-2.0605-63.02-8.49-13.55-39.03-25.51-55.16-33.57-23.03-11.02-39.61-24.1-49.75-39.26-22.87-33.64-20.75-107.48 11.34-137.4 15.59-18.46 43.742-28.115 71.898-28.424zm-456.7 0.52539c29.366-0.195 58.641 8.4839 76.021 26.879 21.42 18.89 29.5 57.478 27.58 93.488h-73.721c0.56-14.15-0.18976-35.578-8.5098-43.648-10.81-14.63-39.36-12.912-46.91 2.3184-4.64 8.26-6.959 20.492-6.959 36.672v146.18c0 30.65 10.649 46.15 31.959 46.49 9.96 0 17.53-3.6216 22.68-10.852 7.19-8.58 8.3105-27.578 7.7305-41.318h73.721c5.0398 70.067-36.317 119.15-106.7 118.29-64.23-0.06-103.86-36.229-103.1-102.79v-168.39c0-33.74 9.8806-59.401 29.641-76.961 17.745-17.095 47.202-26.162 76.568-26.357z" fill="#fff"/>
 <metadata>
  <rdf:RDF>
   <cc:Work rdf:about="">
    <dc:title>CSS Logo</dc:title>
   </cc:Work>
  </rdf:RDF>
 </metadata>
</svg>
