<?xml version="1.0" encoding="UTF-8"?>
<svg class="h-12 w-auto" width="299.99" height="275.37" clip-rule="evenodd" fill-rule="evenodd" stroke-linejoin="round" stroke-miterlimit="2" data-component="logo" version="1.1" viewBox="0 0 299.99 275.37" xml:space="preserve" xmlns="http://www.w3.org/2000/svg" xmlnsxlink="http://www.w3.org/1999/xlink"><path id="background" d="m13.822 212.93c-8.871-19.143-13.822-40.465-13.822-62.935 0-5.815 0.332-11.554 0.977-17.197 0.655-5.703 1.626-11.299 2.893-16.773 7.12-30.704 23.68-57.808 46.452-78.082 19.127-17.006 42.558-29.14 68.244-34.64 10.137-2.165 20.651-3.304 31.43-3.304 3.778 4e-3 7.583 0.149 11.411 0.441 18.154 1.386 35.309 5.956 50.959 13.121 12.625 5.786 24.31 13.274 34.762 22.169 26.253 22.364 44.562 53.517 50.651 88.476 1.455 8.379 2.213 16.996 2.213 25.789-3e-3 3.784-0.149 7.595-0.442 11.429-1.106 14.489-4.241 28.342-9.104 41.302-6.788 18.051-16.959 34.452-29.738 48.428-16.621 16.971-37.743 24.523-55.384 24.209-12.828-0.229-25.379-5.333-34.052-12.801-12.39-10.669-17.394-22.865-19.11-36.474-0.426-3.383-0.176-12.601 1.585-18.984 1.312-4.758 4.64-13.946 9.507-17.965-5.693-2.452-13.021-7.792-15.331-10.355-0.568-0.63-0.494-1.617 0.014-2.296 0.509-0.678 1.4-0.946 2.199-0.659 4.895 1.68 10.856 3.337 17.142 4.389 8.267 1.382 18.548 3.122 28.963 3.634 25.395 1.247 51.921-10.151 60.154-32.83 8.232-22.679 5.038-45.111-24.496-58.566-29.535-13.456-43.178-29.455-67.041-39.104-15.587-6.303-32.935-2.561-50.746 7.282-47.974 26.512-90.955 110.28-71.142 187.89 0.283 1.062-0.195 2.18-1.158 2.709-0.903 0.495-2.013 0.354-2.761-0.331-5.766-6.336-10.998-13.166-15.623-20.421-3.578-5.614-6.79-11.475-9.606-17.548z"/><path id="eye" d="m144.63 63.766c8.092-0.634 15.152 6.272 16.369 15.457 1.624 12.235-2.867 24.874-17.633 25.165-12.614 0.252-16.436-12.469-15.6-20.175 0.83-7.706 7.182-19.687 16.864-20.447z"/><style>
        @keyframes blink {
          0%, 100% {
            transform: scaleY(1);
          }
          50% {
            transform: scaleY(0.15);
          }
        }
        [data-component="logo"]:hover,
        a:focus [data-component="logo"] {
          #eye {
            transform-origin: 50% 30%;
            animation: blink 0.15s cubic-bezier(0.5, 0, 0.5, 1);
          }
        }
        </style></svg>
