<?xml version="1.0" encoding="UTF-8"?>
<svg width="39.221" height="43.413" fill="none" version="1.1" viewBox="0 0 39.221 43.413" xmlns="http://www.w3.org/2000/svg" xmlns:xlink="http://www.w3.org/1999/xlink">
 <rect x="7.8928" y="18.006" width="31.328" height="24.421" fill="none"/>
 <path d="m35.063 20.038h-13.358l-11.686 11.689 6.6774 6.6773z" fill="#54c5f8"/>
 <path d="M 6.68014,28.3864 0,21.7063 21.7063,0 h 13.3575 z" fill="#54c5f8"/>
 <path d="m16.698 38.404 5.0087 5.0087h13.358l-11.689-11.686z" fill="#01579b"/>
 <path d="m16.698 38.404 9.906-3.4292-3.2286-3.2481z" fill="url(#paint0_linear)"/>
 <path d="m16.697 25.046-6.6776 6.6775 6.6776 6.6776 6.6775-6.6776z" fill="#29b6f6"/>
 <path d="m35.064 20.038-11.686 11.686 11.686 11.689h-13.358l-11.689-11.689 11.689-11.686zm-13.358-20.038-21.706 21.706 6.6801 6.6801 28.384-28.386z" fill="#fff"/>
 <defs>
  <linearGradient id="paint0_linear" x1="18.645" x2="23.619" y1="39.693" y2="34.719" gradientUnits="userSpaceOnUse">
   <stop stop-color="#1A237E" stop-opacity=".4" offset="0"/>
   <stop stop-color="#1A237E" stop-opacity="0" offset="1"/>
  </linearGradient>
 </defs>
</svg>
