<?xml version="1.0" encoding="UTF-8"?>
<svg id="lemon-top" class="mt-8 w-full h-auto max-w-32 lg:max-w-36" width="121.97" height="112.66" fill="none" aria-hidden="true" role="img" version="1.1" viewBox="0 0 81.315 67.599" xmlns="http://www.w3.org/2000/svg" xmlns:cc="http://creativecommons.org/ns#" xmlns:dc="http://purl.org/dc/elements/1.1/" xmlns:rdf="http://www.w3.org/1999/02/22-rdf-syntax-ns#">
 <title>Fresh logo</title>
 <path d="m75.565 3.7917c13 27 1 52-7 59 0 4-9 9-12 7-12 5-38-2-53-21-6-7 1-21 21-36 13-10 33-17 51-9z" fill="#ffd80b"/>
 <path d="m9.5651 50.792c-3 0-2 0-6-2.0003l-3-5c-7-23 53-59 71-44 23 15-36 44-51 46-2 0-4 1-5 3-4 2.0003-3 2.0003-6 2.0003z" fill="#fff"/>
 <path d="m60.565 2.7917c15-1 9 10-6 19l-19 10c-2 1-4-2-6 0l-3 6c-3 1-13 3-16 2-5-2-5-9 5-18l7-4c-1-2-1-2 2-5 3-2 19-10 29-11l1 2z" fill="#ffed4e"/>
 <path d="m29.565 22.792c1-1 3-2 3-4l8-3c0 1-1 3 1 4-2 1-7 1-8 5-1-2-1-2-4-2z" fill="#fff"/>
 <metadata>
  <rdf:RDF>
   <cc:Work rdf:about="">
    <dc:title>Fresh logo</dc:title>
   </cc:Work>
  </rdf:RDF>
 </metadata>
</svg>
