<?xml version="1.0" encoding="UTF-8"?>
<svg width="362.73" height="411.38" version="1.1" viewBox="0 0 362.73 411.38" xmlns="http://www.w3.org/2000/svg" xmlns:cc="http://creativecommons.org/ns#" xmlns:dc="http://purl.org/dc/elements/1.1/" xmlns:rdf="http://www.w3.org/1999/02/22-rdf-syntax-ns#">
 <title>HTML5 Logo</title>
 <polygon transform="translate(-74.633,-100.62)" points="437.37 100.62 404.32 470.82 255.78 512 107.64 470.88 74.633 100.62" fill="#e44d26"/>
 <polygon transform="translate(-74.633,-100.62)" points="404.27 130.89 256 130.89 256 480.52 376.03 447.25" fill="#f16529"/>
 <polygon transform="translate(-74.633,-100.62)" points="191.76 221.72 256 221.72 256 176.3 255.84 176.3 142.13 176.3 143.22 188.49 154.38 313.63 256 313.63 256 268.22 195.91 268.22" fill="#ebebeb"/>
 <polygon transform="translate(-74.633,-100.62)" points="205.23 372.55 201.99 336.33 177.42 336.33 156.41 336.33 162.77 407.63 255.79 433.46 256 433.4 256 386.15 255.8 386.21" fill="#ebebeb"/>
 <polygon transform="translate(-74.633,-100.62)" points="311.76 313.63 306.49 372.52 255.84 386.19 255.84 433.44 348.94 407.63 349.62 399.96 360.29 280.41 361.4 268.22 349.16 268.22 255.84 268.22 255.84 313.63" fill="#fff"/>
 <polygon transform="translate(-74.633,-100.62)" points="255.84 221.6 255.84 221.72 365.38 221.72 365.38 221.72 365.53 221.72 366.44 211.51 368.51 188.49 369.6 176.3 255.84 176.3 255.84 204.51" fill="#fff"/>
 <metadata>
  <rdf:RDF>
   <cc:Work rdf:about="">
    <dc:title>HTML5 Logo</dc:title>
   </cc:Work>
  </rdf:RDF>
 </metadata>
</svg>
