<?xml version="1.0" encoding="UTF-8"?>
<svg version="1.1" viewBox="0 0 630 630" xmlns="http://www.w3.org/2000/svg">
 <path d="m0 0v630h630v-630h-630zm479.5 285.89c37.64 0 64.699 13.098 84.199 47.398l-46.1 29.602c-10.15-18.2-21.1-25.371-38.1-25.371-17.34 0-28.33 11.001-28.33 25.371 0 17.76 11 24.949 36.4 35.949l14.799 6.3398c50.3 21.57 78.701 43.56 78.701 93 0 53.3-41.87 82.5-98.1 82.5-54.98 0-90.501-26.199-107.88-60.539l48.109-27.951c12.69 20.72 29.2 35.951 58.4 35.951 24.53 0 40.201-12.261 40.201-29.201 0-20.3-16.102-27.489-43.102-39.299l-14.799-6.3516c-42.72-18.2-71.1-40.999-71.1-89.199 0-44.4 33.829-78.199 86.699-78.199zm-195.61 3.3789h59.199v202.1c0 61.3-35.94 89.201-88.4 89.201-47.4 0-74.849-24.531-88.809-54.076l48.189-29.174c9.3 16.5 17.76 30.449 38.1 30.449 19.45 0 31.721-7.6092 31.721-37.199v-201.3z"/>
</svg>
