<?xml version="1.0" encoding="UTF-8"?>
<svg version="1.1" viewBox="0 0 500 240" xmlns="http://www.w3.org/2000/svg" xmlns:cc="http://creativecommons.org/ns#" xmlns:dc="http://purl.org/dc/elements/1.1/" xmlns:rdf="http://www.w3.org/1999/02/22-rdf-syntax-ns#">
 <title>Sql data base with logo</title>
 <defs>
  <style type="text/css">#black {
  fill:#333;
}
@media (prefers-color-scheme:dark) {
    #black {
        fill: white;
    }
}</style>
 </defs>
 <g fill="none" stroke="#fff" stroke-width="15">
  <ellipse cx="120" cy="50" rx="85" ry="35"/>
  <path d="m35 50v150a85 35 1 1 0 170 0v-150m-170 50a85 35 1 1 0 170 0m-170 50a85 35 1 1 0 170 0"/>
  <path d="m300 100a25 25 1 1 0-50 0 20 25 1 0 0 25 25 20 25 1 0 1 20 25 25 25 1 0 1-50-5"/>
  <path d="m375 175a50 50 1 1 1 15-5m-15-20 30 40"/>
  <path d="m440 70v80a25 25 1 0 0 25 25h20"/>
 </g>
 <metadata>
  <rdf:RDF>
   <cc:Work rdf:about="">
    <dc:title>Sql data base with logo</dc:title>
   </cc:Work>
  </rdf:RDF>
 </metadata>
</svg>
