<?xml version="1.0" encoding="UTF-8"?>
<svg width="128" height="128" fill="none" version="1.1" viewBox="0 0 128 128" xmlns="http://www.w3.org/2000/svg">
 <path d="m6 0c-3.324 0-6 2.676-6 6v116c0 3.324 2.676 6 6 6h116c3.324 0 6-2.676 6-6v-116c0-3.324-2.676-6-6-6h-116zm92.604 52c3.2634 0 6.1538 0.1973 8.6738 0.5918s4.8418 1.0002 6.9688 1.8184v13.105c-1.049-0.7305-2.1917-1.3725-3.4297-1.9277-1.239-0.5552-2.5132-1.0157-3.8242-1.3809-1.311-0.3653-2.6142-0.63525-3.9102-0.81055-1.297-0.1753-2.5276-0.26367-3.6934-0.26367-1.6023 1e-6 -3.0581 0.15404-4.3691 0.46094-1.311 0.3068-2.4192 0.73787-3.3223 1.293-0.9031 0.5552-1.6004 1.2198-2.0957 1.9941-0.4953 0.7743-0.74414 1.6431-0.74414 2.6074 0 1.0519 0.27658 1.9935 0.83008 2.8262 0.5535 0.8328 1.3397 1.622 2.3594 2.3672 1.0196 0.7451 2.2581 1.4755 3.7148 2.1914 1.4566 0.7159 3.1023 1.4551 4.9375 2.2148 2.506 1.0519 4.756 2.1682 6.752 3.3516 1.995 1.1834 3.7078 2.5215 5.1348 4.0117 1.428 1.4903 2.5193 3.1916 3.2773 5.1055 0.757 1.914 1.1367 4.1415 1.1367 6.6836 0 3.5063-0.66328 6.451-1.9883 8.832-1.326 2.382-3.1245 4.3092-5.3965 5.7852-2.273 1.476-4.9156 2.5347-7.9316 3.1777-3.0148 0.643-6.1985 0.96484-9.5488 0.96484-3.4377 0-6.7078-0.29195-9.8105-0.87695-3.1027-0.584-5.7901-1.4609-8.0625-2.6289v-14.025c2.5346 2.133 5.2883 3.7328 8.2598 4.7988 2.9716 1.067 5.9721 1.5996 9.002 1.5996 1.7771 0 3.3288-0.16142 4.6543-0.48242 1.3256-0.321 2.4317-0.76594 3.3203-1.3359 0.8885-0.57 1.5513-1.2436 1.9883-2.0176s0.65625-1.6133 0.65625-2.5195c0-1.2273-0.34883-2.3228-1.0488-3.2871-0.699-0.9642-1.6543-1.8556-2.8633-2.6738s-2.6421-1.6075-4.3027-2.3672c-1.6605-0.7597-3.4522-1.5334-5.375-2.3223-4.8943-2.0454-8.5438-4.5448-10.947-7.4961-2.4035-2.9512-3.6055-6.5149-3.6055-10.693 0-3.2727 0.6558-6.0853 1.9668-8.4375 1.3109-2.3522 3.0957-4.2871 5.3535-5.8066 2.2578-1.5194 4.8722-2.6376 7.8438-3.3535 2.9716-0.7159 6.1184-1.0742 9.4395-1.0742zm-80.604 1h51v11.555h-18.297v51.445h-14.496v-51.445h-18.207v-11.555z" fill="#fff"/>
</svg>
